<svg width="32" height="32" viewBox="0 0 32 32" fill="none" xmlns="http://www.w3.org/2000/svg">
<path fill-rule="evenodd" clip-rule="evenodd" d="M27.3247 9.21519L22.6964 4.58685L4.18305 23.1002L8.81138 27.7285C10.5155 29.4326 13.2784 29.4326 14.9825 27.7285L27.3247 15.3863C29.0288 13.6822 29.0288 10.9193 27.3247 9.21519ZM22.6964 0.472778L0.0689697 23.1002L6.75434 29.7856C9.59452 32.6257 14.1994 32.6257 17.0395 29.7856L29.3818 17.4433C32.2219 14.6032 32.2219 9.99833 29.3818 7.15815L22.6964 0.472778Z" fill="#F0F0F0"/>
<path d="M15.4968 23.1002C14.3607 24.2363 12.5187 24.2363 11.3827 23.1002C10.2466 21.9641 10.2466 20.1222 11.3827 18.9861C12.5187 17.85 14.3607 17.85 15.4968 18.9861C16.6328 20.1222 16.6328 21.9641 15.4968 23.1002Z" fill="#F0F0F0"/>
<path d="M23.7249 12.815C23.1569 13.383 22.2359 13.383 21.6679 12.815C21.0998 12.247 21.0998 11.326 21.6679 10.758C22.2359 10.1899 23.1569 10.1899 23.7249 10.758C24.2929 11.326 24.2929 12.247 23.7249 12.815Z" fill="#F0F0F0"/>
<path d="M19.6108 12.815C19.0428 13.383 18.1218 13.383 17.5538 12.815C16.9858 12.247 16.9858 11.326 17.5538 10.758C18.1218 10.1899 19.0428 10.1899 19.6108 10.758C20.1789 11.326 20.1789 12.247 19.6108 12.815Z" fill="#F0F0F0"/>
<path d="M23.7249 16.9291C23.1569 17.4971 22.2359 17.4971 21.6679 16.9291C21.0998 16.361 21.0998 15.4401 21.6679 14.872C22.2359 14.304 23.1569 14.304 23.7249 14.872C24.2929 15.4401 24.2929 16.361 23.7249 16.9291Z" fill="#F0F0F0"/>
<path d="M19.6108 16.9291C19.0428 17.4971 18.1218 17.4971 17.5538 16.9291C16.9858 16.361 16.9858 15.4401 17.5538 14.872C18.1218 14.304 19.0428 14.304 19.6108 14.872C20.1789 15.4401 20.1789 16.361 19.6108 16.9291Z" fill="#F0F0F0"/>
</svg>
