<svg width="69" height="30" viewBox="0 0 69 30" fill="none" xmlns="http://www.w3.org/2000/svg">
<path fill-rule="evenodd" clip-rule="evenodd" d="M6 0C2.68629 0 0 2.68629 0 6V24C0 27.3137 2.68629 30 6 30H63C66.3137 30 69 27.3137 69 24V6C69 2.68629 66.3137 0 63 0H6ZM14.0156 4.28571H54.9844V25.7143H14.0156V4.28571ZM9.70312 8.57142C9.70312 10.3466 8.25505 11.7857 6.46875 11.7857C4.68245 11.7857 3.23438 10.3466 3.23438 8.57142C3.23438 6.79622 4.68245 5.35713 6.46875 5.35713C8.25505 5.35713 9.70312 6.79622 9.70312 8.57142ZM62.5312 24.6428C64.3175 24.6428 65.7656 23.2038 65.7656 21.4286C65.7656 19.6534 64.3175 18.2143 62.5312 18.2143C60.745 18.2143 59.2969 19.6534 59.2969 21.4286C59.2969 23.2038 60.745 24.6428 62.5312 24.6428ZM8.625 16.6071C8.625 17.4947 7.90096 18.2143 7.00781 18.2143C6.11466 18.2143 5.39062 17.4947 5.39062 16.6071C5.39062 15.7195 6.11466 15 7.00781 15C7.90096 15 8.625 15.7195 8.625 16.6071ZM61.9922 8.57142C62.8853 8.57142 63.6094 7.85188 63.6094 6.96428C63.6094 6.07668 62.8853 5.35713 61.9922 5.35713C61.099 5.35713 60.375 6.07668 60.375 6.96428C60.375 7.85188 61.099 8.57142 61.9922 8.57142ZM5.39062 19.8214C5.39062 20.709 4.66659 21.4286 3.77344 21.4286C2.88029 21.4286 2.15625 20.709 2.15625 19.8214C2.15625 18.9338 2.88029 18.2143 3.77344 18.2143C4.66659 18.2143 5.39062 18.9338 5.39062 19.8214ZM58.7578 11.7857C59.651 11.7857 60.375 11.0662 60.375 10.1786C60.375 9.29096 59.651 8.57142 58.7578 8.57142C57.8647 8.57142 57.1406 9.29096 57.1406 10.1786C57.1406 11.0662 57.8647 11.7857 58.7578 11.7857ZM11.8594 19.8214C11.8594 20.709 11.1353 21.4286 10.2422 21.4286C9.34904 21.4286 8.625 20.709 8.625 19.8214C8.625 18.9338 9.34904 18.2143 10.2422 18.2143C11.1353 18.2143 11.8594 18.9338 11.8594 19.8214ZM65.2266 11.7857C66.1197 11.7857 66.8438 11.0662 66.8438 10.1786C66.8438 9.29096 66.1197 8.57142 65.2266 8.57142C64.3334 8.57142 63.6094 9.29096 63.6094 10.1786C63.6094 11.0662 64.3334 11.7857 65.2266 11.7857ZM8.625 23.0357C8.625 23.9233 7.90096 24.6428 7.00781 24.6428C6.11466 24.6428 5.39062 23.9233 5.39062 23.0357C5.39062 22.1481 6.11466 21.4286 7.00781 21.4286C7.90096 21.4286 8.625 22.1481 8.625 23.0357ZM61.9922 15C62.8853 15 63.6094 14.2804 63.6094 13.3928C63.6094 12.5052 62.8853 11.7857 61.9922 11.7857C61.099 11.7857 60.375 12.5052 60.375 13.3928C60.375 14.2804 61.099 15 61.9922 15Z" fill="#F0F0F0"/>
</svg>
