<svg width="80" height="80" viewBox="0 0 80 80" fill="none" xmlns="http://www.w3.org/2000/svg">
<circle cx="40" cy="40" r="40" fill="#FF2424"/>
<path d="M21.0536 62.132C20.2543 62.132 19.532 61.9597 18.8866 61.615C18.2486 61.2703 17.7463 60.7973 17.3796 60.196C17.0203 59.5873 16.8406 58.9053 16.8406 58.15C16.8406 57.3947 17.0203 56.7163 17.3796 56.115C17.7463 55.5063 18.2486 55.0297 18.8866 54.685C19.532 54.3403 20.2543 54.168 21.0536 54.168C21.853 54.168 22.5716 54.3403 23.2096 54.685C23.8476 55.0297 24.35 55.5063 24.7166 56.115C25.0833 56.7163 25.2666 57.3947 25.2666 58.15C25.2666 58.9053 25.0833 59.5873 24.7166 60.196C24.35 60.7973 23.8476 61.2703 23.2096 61.615C22.5716 61.9597 21.853 62.132 21.0536 62.132ZM21.0536 60.614C21.5083 60.614 21.919 60.5113 22.2856 60.306C22.6523 60.0933 22.9383 59.8 23.1436 59.426C23.3563 59.052 23.4626 58.6267 23.4626 58.15C23.4626 57.6733 23.3563 57.248 23.1436 56.874C22.9383 56.5 22.6523 56.2103 22.2856 56.005C21.919 55.7923 21.5083 55.686 21.0536 55.686C20.599 55.686 20.1883 55.7923 19.8216 56.005C19.455 56.2103 19.1653 56.5 18.9526 56.874C18.7473 57.248 18.6446 57.6733 18.6446 58.15C18.6446 58.6267 18.7473 59.052 18.9526 59.426C19.1653 59.8 19.455 60.0933 19.8216 60.306C20.1883 60.5113 20.599 60.614 21.0536 60.614ZM34.3679 54.3V62H32.9049L29.0659 57.325V62H27.3059V54.3H28.7799L32.6079 58.975V54.3H34.3679ZM36.8897 54.3H38.6717V60.548H42.5327V62H36.8897V54.3ZM44.2283 54.3H46.0103V62H44.2283V54.3ZM55.5997 54.3V62H54.1367L50.2977 57.325V62H48.5377V54.3H50.0117L53.8397 58.975V54.3H55.5997ZM64.0835 60.57V62H58.1215V54.3H63.9405V55.73H59.8925V57.402H63.4675V58.788H59.8925V60.57H64.0835Z" fill="#F9F9F9"/>
<path d="M24 26C24 22.134 27.134 19 31 19H37V49H31C27.134 49 24 45.866 24 42V26Z" stroke="white" stroke-width="2"/>
<path d="M41 18H47C51.4183 18 55 21.5817 55 26V42C55 46.4183 51.4183 50 47 50H41V18Z" fill="white"/>
<circle cx="48" cy="35" r="3" fill="#FF2424"/>
<circle cx="31" cy="28" r="3" fill="white"/>
</svg>
