<svg width="42" height="42" viewBox="0 0 42 42" fill="none" xmlns="http://www.w3.org/2000/svg">
<mask id="path-1-inside-1_9_20" fill="white">
<path fill-rule="evenodd" clip-rule="evenodd" d="M7 0C3.13401 0 0 3.134 0 7V28.6802C0 32.5462 3.13401 35.6802 7 35.6802H15.7213L19.3352 41.1085C20.1267 42.2974 21.8733 42.2974 22.6648 41.1085L26.2787 35.6802H35C38.866 35.6802 42 32.5462 42 28.6802V7C42 3.13401 38.866 0 35 0H7Z"/>
</mask>
<path fill-rule="evenodd" clip-rule="evenodd" d="M7 0C3.13401 0 0 3.134 0 7V28.6802C0 32.5462 3.13401 35.6802 7 35.6802H15.7213L19.3352 41.1085C20.1267 42.2974 21.8733 42.2974 22.6648 41.1085L26.2787 35.6802H35C38.866 35.6802 42 32.5462 42 28.6802V7C42 3.13401 38.866 0 35 0H7Z" fill="white"/>
<path d="M15.7213 35.6802L19.051 33.4636L17.8637 31.6802H15.7213V35.6802ZM19.3352 41.1085L16.0056 43.3252L16.0056 43.3252L19.3352 41.1085ZM22.6648 41.1085L19.3352 38.8919L19.3352 38.8919L22.6648 41.1085ZM26.2787 35.6802V31.6802H24.1363L22.949 33.4636L26.2787 35.6802ZM4 7C4 5.34314 5.34314 4 7 4V-4C0.924871 -4 -4 0.92486 -4 7H4ZM4 28.6802V7H-4V28.6802H4ZM7 31.6802C5.34315 31.6802 4 30.3371 4 28.6802H-4C-4 34.7554 0.924869 39.6802 7 39.6802V31.6802ZM15.7213 31.6802H7V39.6802H15.7213V31.6802ZM22.6648 38.8919L19.051 33.4636L12.3917 37.8969L16.0056 43.3252L22.6648 38.8919ZM19.3352 38.8919C20.1267 37.703 21.8733 37.703 22.6648 38.8919L16.0056 43.3252C18.3801 46.8919 23.62 46.8919 25.9944 43.3252L19.3352 38.8919ZM22.949 33.4636L19.3352 38.8919L25.9944 43.3252L29.6083 37.8969L22.949 33.4636ZM35 31.6802H26.2787V39.6802H35V31.6802ZM38 28.6802C38 30.3371 36.6569 31.6802 35 31.6802V39.6802C41.0751 39.6802 46 34.7554 46 28.6802H38ZM38 7V28.6802H46V7H38ZM35 4C36.6569 4 38 5.34315 38 7H46C46 0.924868 41.0751 -4 35 -4V4ZM7 4H35V-4H7V4Z" fill="#FA5757" mask="url(#path-1-inside-1_9_20)"/>
<path d="M4 17.8401H38" stroke="#FA5757" stroke-width="4"/>
<path d="M8 25.769H21" stroke="#FA5757" stroke-width="4"/>
</svg>
