<svg width="94" height="94" viewBox="0 0 94 94" fill="none" xmlns="http://www.w3.org/2000/svg">
<g filter="url(#filter0_d_66_3)">
<circle cx="47" cy="47" r="40" fill="white"/>
<circle cx="47" cy="47" r="39.5" stroke="#DCDCDC"/>
</g>
<rect x="27" y="33" width="40" height="28" fill="white" stroke="#4277FF" stroke-width="4"/>
<mask id="path-4-inside-1_66_3" fill="white">
<path fill-rule="evenodd" clip-rule="evenodd" d="M41.6923 38C37.444 38 34 41.444 34 45.6923V63H46.5H49.3846H59V53.6923C59 49.444 55.556 46 51.3077 46C50.6239 46 49.9735 46.1427 49.3846 46.4V45.6923C49.3846 41.444 45.9407 38 41.6923 38Z"/>
</mask>
<path fill-rule="evenodd" clip-rule="evenodd" d="M41.6923 38C37.444 38 34 41.444 34 45.6923V63H46.5H49.3846H59V53.6923C59 49.444 55.556 46 51.3077 46C50.6239 46 49.9735 46.1427 49.3846 46.4V45.6923C49.3846 41.444 45.9407 38 41.6923 38Z" fill="white"/>
<path d="M34 63H30V67H34V63ZM59 63V67H63V63H59ZM49.3846 46.4H45.3846V52.5129L50.9861 50.0655L49.3846 46.4ZM38 45.6923C38 43.6531 39.6531 42 41.6923 42V34C35.2348 34 30 39.2348 30 45.6923H38ZM38 63V45.6923H30V63H38ZM46.5 59H34V67H46.5V59ZM49.3846 59H46.5V67H49.3846V59ZM59 59H49.3846V67H59V59ZM55 53.6923V63H63V53.6923H55ZM51.3077 50C53.3469 50 55 51.6531 55 53.6923H63C63 47.2348 57.7652 42 51.3077 42V50ZM50.9861 50.0655C51.0795 50.0247 51.1854 50 51.3077 50V42C50.0624 42 48.8676 42.2608 47.7831 42.7346L50.9861 50.0655ZM45.3846 45.6923V46.4H53.3846V45.6923H45.3846ZM41.6923 42C43.7315 42 45.3846 43.6531 45.3846 45.6923H53.3846C53.3846 39.2348 48.1498 34 41.6923 34V42Z" fill="#4277FF" mask="url(#path-4-inside-1_66_3)"/>
<defs>
<filter id="filter0_d_66_3" x="0" y="0" width="94" height="94" filterUnits="userSpaceOnUse" color-interpolation-filters="sRGB">
<feFlood flood-opacity="0" result="BackgroundImageFix"/>
<feColorMatrix in="SourceAlpha" type="matrix" values="0 0 0 0 0 0 0 0 0 0 0 0 0 0 0 0 0 0 127 0" result="hardAlpha"/>
<feOffset/>
<feGaussianBlur stdDeviation="3.5"/>
<feColorMatrix type="matrix" values="0 0 0 0 0.879167 0 0 0 0 0.879167 0 0 0 0 0.879167 0 0 0 1 0"/>
<feBlend mode="normal" in2="BackgroundImageFix" result="effect1_dropShadow_66_3"/>
<feBlend mode="normal" in="SourceGraphic" in2="effect1_dropShadow_66_3" result="shape"/>
</filter>
</defs>
</svg>
