<svg width="94" height="94" viewBox="0 0 94 94" fill="none" xmlns="http://www.w3.org/2000/svg">
<g filter="url(#filter0_d_66_9)">
<circle cx="47" cy="47" r="40" fill="white"/>
<circle cx="47" cy="47" r="39.5" stroke="#DCDCDC"/>
</g>
<path d="M57.1127 27.8284L64.8908 35.6066C68.015 38.7308 68.015 43.7961 64.8908 46.9203L47.9203 63.8909C44.7961 67.0151 39.7308 67.0151 36.6066 63.8909L28.8284 56.1127L57.1127 27.8284Z" stroke="#8B8B8B" stroke-width="4"/>
<circle cx="44.3848" cy="53.2843" r="4" transform="rotate(45 44.3848 53.2843)" fill="#8B8B8B"/>
<circle cx="57.1127" cy="40.5563" r="2" transform="rotate(45 57.1127 40.5563)" fill="#8B8B8B"/>
<circle cx="51.4558" cy="40.5563" r="2" transform="rotate(45 51.4558 40.5563)" fill="#8B8B8B"/>
<circle cx="57.1127" cy="46.2132" r="2" transform="rotate(45 57.1127 46.2132)" fill="#8B8B8B"/>
<circle cx="51.4558" cy="46.2132" r="2" transform="rotate(45 51.4558 46.2132)" fill="#8B8B8B"/>
<defs>
<filter id="filter0_d_66_9" x="0" y="0" width="94" height="94" filterUnits="userSpaceOnUse" color-interpolation-filters="sRGB">
<feFlood flood-opacity="0" result="BackgroundImageFix"/>
<feColorMatrix in="SourceAlpha" type="matrix" values="0 0 0 0 0 0 0 0 0 0 0 0 0 0 0 0 0 0 127 0" result="hardAlpha"/>
<feOffset/>
<feGaussianBlur stdDeviation="3.5"/>
<feColorMatrix type="matrix" values="0 0 0 0 0.879167 0 0 0 0 0.879167 0 0 0 0 0.879167 0 0 0 1 0"/>
<feBlend mode="normal" in2="BackgroundImageFix" result="effect1_dropShadow_66_9"/>
<feBlend mode="normal" in="SourceGraphic" in2="effect1_dropShadow_66_9" result="shape"/>
</filter>
</defs>
</svg>
