<svg width="33" height="33" viewBox="0 0 33 33" fill="none" xmlns="http://www.w3.org/2000/svg">
<path fill-rule="evenodd" clip-rule="evenodd" d="M15.0282 32.4728V26.6546H17.9373V32.4728H15.0282Z" fill="#F0F0F0"/>
<path fill-rule="evenodd" clip-rule="evenodd" d="M15.0282 6.29097V0.472778H17.9373V6.29097H15.0282Z" fill="#F0F0F0"/>
<path fill-rule="evenodd" clip-rule="evenodd" d="M22.7269 8.17154L26.7679 4.13052L28.825 6.18755L24.7839 10.2286L22.7269 8.17154Z" fill="#F0F0F0"/>
<path fill-rule="evenodd" clip-rule="evenodd" d="M4.14056 26.7579L8.1815 22.717L10.2385 24.774L6.1976 28.815L4.14056 26.7579Z" fill="#F0F0F0"/>
<path fill-rule="evenodd" clip-rule="evenodd" d="M26.768 28.815L22.7269 24.774L24.784 22.717L28.825 26.7579L26.768 28.815Z" fill="#F0F0F0"/>
<path fill-rule="evenodd" clip-rule="evenodd" d="M8.18152 10.2286L4.1405 6.18755L6.19753 4.13052L10.2386 8.17154L8.18152 10.2286Z" fill="#F0F0F0"/>
<path fill-rule="evenodd" clip-rule="evenodd" d="M32.4828 17.9273H26.6646V15.0182H32.4828V17.9273Z" fill="#F0F0F0"/>
<path fill-rule="evenodd" clip-rule="evenodd" d="M6.30094 17.9273H0.482758V15.0182H6.30094V17.9273Z" fill="#F0F0F0"/>
<path fill-rule="evenodd" clip-rule="evenodd" d="M16.4828 25.2001C21.3027 25.2001 25.21 21.2927 25.21 16.4728C25.21 11.6528 21.3027 7.74551 16.4828 7.74551C11.6628 7.74551 7.75549 11.6528 7.75549 16.4728C7.75549 21.2927 11.6628 25.2001 16.4828 25.2001ZM16.4828 28.1091C22.9093 28.1091 28.1191 22.8994 28.1191 16.4728C28.1191 10.0462 22.9093 4.83641 16.4828 4.83641C10.0562 4.83641 4.84639 10.0462 4.84639 16.4728C4.84639 22.8994 10.0562 28.1091 16.4828 28.1091Z" fill="#F0F0F0"/>
</svg>
