<svg width="69" height="31" viewBox="0 0 69 31" fill="none" xmlns="http://www.w3.org/2000/svg">
<path fill-rule="evenodd" clip-rule="evenodd" d="M6 0.317627C2.68629 0.317627 0 3.00392 0 6.31763V24.3176C0 27.6313 2.68629 30.3176 6 30.3176H63C66.3137 30.3176 69 27.6313 69 24.3176V6.31763C69 3.00392 66.3137 0.317627 63 0.317627H6ZM14.0156 4.60333H54.9844V26.0319H14.0156V4.60333ZM9.70312 8.88905C9.70312 10.6642 8.25505 12.1033 6.46875 12.1033C4.68245 12.1033 3.23438 10.6642 3.23438 8.88905C3.23438 7.11385 4.68245 5.67476 6.46875 5.67476C8.25505 5.67476 9.70312 7.11385 9.70312 8.88905ZM62.5312 24.9605C64.3175 24.9605 65.7656 23.5214 65.7656 21.7462C65.7656 19.971 64.3175 18.5319 62.5312 18.5319C60.745 18.5319 59.2969 19.971 59.2969 21.7462C59.2969 23.5214 60.745 24.9605 62.5312 24.9605ZM8.625 16.9248C8.625 17.8124 7.90096 18.5319 7.00781 18.5319C6.11466 18.5319 5.39062 17.8124 5.39062 16.9248C5.39062 16.0372 6.11466 15.3176 7.00781 15.3176C7.90096 15.3176 8.625 16.0372 8.625 16.9248ZM61.9922 8.88905C62.8853 8.88905 63.6094 8.1695 63.6094 7.2819C63.6094 6.3943 62.8853 5.67476 61.9922 5.67476C61.099 5.67476 60.375 6.3943 60.375 7.2819C60.375 8.1695 61.099 8.88905 61.9922 8.88905ZM5.39062 20.139C5.39062 21.0266 4.66659 21.7462 3.77344 21.7462C2.88029 21.7462 2.15625 21.0266 2.15625 20.139C2.15625 19.2514 2.88029 18.5319 3.77344 18.5319C4.66659 18.5319 5.39062 19.2514 5.39062 20.139ZM58.7578 12.1033C59.651 12.1033 60.375 11.3838 60.375 10.4962C60.375 9.60859 59.651 8.88905 58.7578 8.88905C57.8647 8.88905 57.1406 9.60859 57.1406 10.4962C57.1406 11.3838 57.8647 12.1033 58.7578 12.1033ZM11.8594 20.139C11.8594 21.0266 11.1353 21.7462 10.2422 21.7462C9.34904 21.7462 8.625 21.0266 8.625 20.139C8.625 19.2514 9.34904 18.5319 10.2422 18.5319C11.1353 18.5319 11.8594 19.2514 11.8594 20.139ZM65.2266 12.1033C66.1197 12.1033 66.8438 11.3838 66.8438 10.4962C66.8438 9.60859 66.1197 8.88905 65.2266 8.88905C64.3334 8.88905 63.6094 9.60859 63.6094 10.4962C63.6094 11.3838 64.3334 12.1033 65.2266 12.1033ZM8.625 23.3533C8.625 24.2409 7.90096 24.9605 7.00781 24.9605C6.11466 24.9605 5.39062 24.2409 5.39062 23.3533C5.39062 22.4657 6.11466 21.7462 7.00781 21.7462C7.90096 21.7462 8.625 22.4657 8.625 23.3533ZM61.9922 15.3176C62.8853 15.3176 63.6094 14.5981 63.6094 13.7105C63.6094 12.8229 62.8853 12.1033 61.9922 12.1033C61.099 12.1033 60.375 12.8229 60.375 13.7105C60.375 14.5981 61.099 15.3176 61.9922 15.3176Z" fill="#F0F0F0"/>
</svg>
