<svg width="94" height="94" viewBox="0 0 94 94" fill="none" xmlns="http://www.w3.org/2000/svg">
<g filter="url(#filter0_d_9_20)">
<circle cx="47" cy="47" r="40" fill="white"/>
<circle cx="47" cy="47" r="39.5" stroke="#DCDCDC"/>
</g>
<mask id="path-3-inside-1_9_20" fill="white">
<path fill-rule="evenodd" clip-rule="evenodd" d="M33 26C29.134 26 26 29.134 26 33V54.6802C26 58.5462 29.134 61.6802 33 61.6802H41.7213L45.3352 67.1085C46.1267 68.2974 47.8733 68.2974 48.6648 67.1085L52.2787 61.6802H61C64.866 61.6802 68 58.5462 68 54.6802V33C68 29.134 64.866 26 61 26H33Z"/>
</mask>
<path fill-rule="evenodd" clip-rule="evenodd" d="M33 26C29.134 26 26 29.134 26 33V54.6802C26 58.5462 29.134 61.6802 33 61.6802H41.7213L45.3352 67.1085C46.1267 68.2974 47.8733 68.2974 48.6648 67.1085L52.2787 61.6802H61C64.866 61.6802 68 58.5462 68 54.6802V33C68 29.134 64.866 26 61 26H33Z" fill="white"/>
<path d="M41.7213 61.6802L45.051 59.4636L43.8637 57.6802H41.7213V61.6802ZM45.3352 67.1085L42.0056 69.3252L42.0056 69.3252L45.3352 67.1085ZM48.6648 67.1085L45.3352 64.8919L45.3352 64.8919L48.6648 67.1085ZM52.2787 61.6802V57.6802H50.1363L48.949 59.4636L52.2787 61.6802ZM30 33C30 31.3431 31.3431 30 33 30V22C26.9249 22 22 26.9249 22 33H30ZM30 54.6802V33H22V54.6802H30ZM33 57.6802C31.3431 57.6802 30 56.3371 30 54.6802H22C22 60.7554 26.9249 65.6802 33 65.6802V57.6802ZM41.7213 57.6802H33V65.6802H41.7213V57.6802ZM48.6648 64.8919L45.051 59.4636L38.3917 63.8969L42.0056 69.3252L48.6648 64.8919ZM45.3352 64.8919C46.1267 63.703 47.8733 63.703 48.6648 64.8919L42.0056 69.3252C44.3801 72.8919 49.62 72.8919 51.9944 69.3252L45.3352 64.8919ZM48.949 59.4636L45.3352 64.8919L51.9944 69.3252L55.6083 63.8969L48.949 59.4636ZM61 57.6802H52.2787V65.6802H61V57.6802ZM64 54.6802C64 56.3371 62.6569 57.6802 61 57.6802V65.6802C67.0751 65.6802 72 60.7554 72 54.6802H64ZM64 33V54.6802H72V33H64ZM61 30C62.6569 30 64 31.3431 64 33H72C72 26.9249 67.0751 22 61 22V30ZM33 30H61V22H33V30Z" fill="#FA5757" mask="url(#path-3-inside-1_9_20)"/>
<path d="M30 43.8401H64" stroke="#FA5757" stroke-width="4"/>
<path d="M34 51.769H47" stroke="#FA5757" stroke-width="4"/>
<defs>
<filter id="filter0_d_9_20" x="0" y="0" width="94" height="94" filterUnits="userSpaceOnUse" color-interpolation-filters="sRGB">
<feFlood flood-opacity="0" result="BackgroundImageFix"/>
<feColorMatrix in="SourceAlpha" type="matrix" values="0 0 0 0 0 0 0 0 0 0 0 0 0 0 0 0 0 0 127 0" result="hardAlpha"/>
<feOffset/>
<feGaussianBlur stdDeviation="3.5"/>
<feColorMatrix type="matrix" values="0 0 0 0 0.879167 0 0 0 0 0.879167 0 0 0 0 0.879167 0 0 0 1 0"/>
<feBlend mode="normal" in2="BackgroundImageFix" result="effect1_dropShadow_9_20"/>
<feBlend mode="normal" in="SourceGraphic" in2="effect1_dropShadow_9_20" result="shape"/>
</filter>
</defs>
</svg>
