<svg width="33" height="25" viewBox="0 0 33 25" fill="none" xmlns="http://www.w3.org/2000/svg">
<path fill-rule="evenodd" clip-rule="evenodd" d="M29.7461 3.74552H3.56427V21.2001H29.7461V3.74552ZM0.655182 0.836426V24.1092H32.6552V0.836426H0.655182Z" fill="#19A1FF"/>
<path fill-rule="evenodd" clip-rule="evenodd" d="M17.8557 9.13386C16.9598 7.23855 15.0306 5.92733 12.795 5.92733C9.70534 5.92733 7.20064 8.43204 7.20064 11.5217V24.1092H25.3825V17.3399C25.3825 14.7736 23.6545 12.6109 21.2985 11.9518C20.8181 11.8174 20.3114 11.7455 19.788 11.7455C19.2908 11.7455 18.8177 11.8493 18.3895 12.0365V11.5217C18.3895 10.6675 18.198 9.85807 17.8557 9.13386ZM22.4734 21.2001V17.3399C22.4734 15.8569 21.2711 14.6546 19.788 14.6546C19.6991 14.6546 19.6221 14.6725 19.5542 14.7022L15.4804 16.4821V11.5217C15.4804 10.0387 14.2781 8.83643 12.795 8.83643C11.312 8.83643 10.1097 10.0387 10.1097 11.5217V21.2001H22.4734Z" fill="#19A1FF"/>
</svg>
