<svg width="28" height="20" viewBox="0 0 28 20" fill="none" xmlns="http://www.w3.org/2000/svg">
<path fill-rule="evenodd" clip-rule="evenodd" d="M27.7445 7.45612C26.0819 5.16218 23.984 3.30453 21.6004 2.01591C19.2169 0.727279 16.6066 0.0394801 13.9561 0.00165007C11.3056 -0.03618 8.68031 0.576893 6.26777 1.79707C3.85523 3.01724 1.715 4.81439 0 7.06013L2.00155 8.94719C3.46644 7.02896 5.29455 5.49389 7.35527 4.45166C9.41598 3.40943 11.6584 2.88576 13.9224 2.91808C16.1864 2.95039 18.416 3.53788 20.4519 4.63859C22.4879 5.73929 24.2799 7.32603 25.6999 9.28543L27.7445 7.45612ZM23.0899 11.9349C21.9647 10.3397 20.5361 9.04063 18.9062 8.13063C17.2763 7.22063 15.4856 6.72221 13.6621 6.67107C11.8386 6.61992 10.0275 7.0173 8.35843 7.83477C6.68933 8.65224 5.20351 9.86959 4.00732 11.3997L5.8328 13.1615C6.79526 11.9304 7.99076 10.951 9.33372 10.2932C10.6767 9.63548 12.1339 9.31574 13.6011 9.35689C15.0683 9.39804 16.5091 9.79907 17.8205 10.5313C19.1319 11.2635 20.2814 12.3087 21.1867 13.5922L23.0899 11.9349ZM16.0209 13.8408C16.7489 14.1758 17.4103 14.6669 17.9675 15.2859L13.7248 20L9.48218 15.2859C10.0393 14.6669 10.7008 14.1758 11.4287 13.8408C12.1567 13.5058 12.9369 13.3333 13.7248 13.3333C14.5127 13.3333 15.293 13.5058 16.0209 13.8408Z" fill="#F0F0F0"/>
</svg>
