<svg width="30" height="33" viewBox="0 0 30 33" fill="none" xmlns="http://www.w3.org/2000/svg">
<path d="M9.80564 4.29766C4.28321 6.36128 0.351089 11.6851 0.351089 17.9273C0.351089 25.9606 6.86331 32.4728 14.8965 32.4728C22.9298 32.4728 29.442 25.9606 29.442 17.9273C29.442 11.6851 25.5099 6.36128 19.9875 4.29766V7.46075C23.8627 9.34918 26.5329 13.3264 26.5329 17.9273C26.5329 24.3539 21.3231 29.5637 14.8965 29.5637C8.46996 29.5637 3.26018 24.3539 3.26018 17.9273C3.26018 13.3264 5.93038 9.34918 9.80564 7.46075V4.29766Z" fill="#F0F0F0"/>
<path d="M13.442 0.472778H16.3511V15.7455H13.442V0.472778Z" fill="#F0F0F0"/>
</svg>
