<svg width="32" height="31" viewBox="0 0 32 31" fill="none" xmlns="http://www.w3.org/2000/svg">
<path fill-rule="evenodd" clip-rule="evenodd" d="M17.8516 23.4728H25.6458C27.0516 23.4728 28.1912 22.3332 28.1912 20.9273V5.65462C28.1912 4.2488 27.0516 3.10916 25.6458 3.10916H6.00942C4.6036 3.10916 3.46396 4.2488 3.46396 5.65462V20.9273C3.46396 22.3332 4.6036 23.4728 6.00942 23.4728H13.3579L15.7117 26.8966L17.8516 23.4728ZM14.8301 28.3072L14.831 28.3058L14.8301 28.3072ZM19.464 26.3819H25.6458C28.6582 26.3819 31.1003 23.9398 31.1003 20.9273V5.65462C31.1003 2.64216 28.6582 0.200073 25.6458 0.200073H6.00942C2.99695 0.200073 0.554871 2.64216 0.554871 5.65462V20.9273C0.554871 23.9398 2.99695 26.3819 6.00942 26.3819H11.8276L14.2569 29.9155C14.9986 30.9943 16.6031 30.9593 17.297 29.849L19.464 26.3819Z" fill="#FC5835"/>
<path fill-rule="evenodd" clip-rule="evenodd" d="M28.1912 14.6292H3.46396V11.7201H28.1912V14.6292ZM15.8276 20.3957H6.37305V17.4866H15.8276V20.3957Z" fill="#FC5835"/>
</svg>
