<svg width="44" height="32" viewBox="0 0 44 32" fill="none" xmlns="http://www.w3.org/2000/svg">
<rect x="2" y="2" width="40" height="28" fill="white" stroke="#4277FF" stroke-width="4"/>
<mask id="path-2-inside-1_33_302" fill="white">
<path fill-rule="evenodd" clip-rule="evenodd" d="M16.6923 7C12.444 7 9 10.444 9 14.6923V32H21.5H24.3846H34V22.6923C34 18.444 30.556 15 26.3077 15C25.6239 15 24.9735 15.1427 24.3846 15.4V14.6923C24.3846 10.444 20.9407 7 16.6923 7Z"/>
</mask>
<path fill-rule="evenodd" clip-rule="evenodd" d="M16.6923 7C12.444 7 9 10.444 9 14.6923V32H21.5H24.3846H34V22.6923C34 18.444 30.556 15 26.3077 15C25.6239 15 24.9735 15.1427 24.3846 15.4V14.6923C24.3846 10.444 20.9407 7 16.6923 7Z" fill="white"/>
<path d="M9 32H5V36H9V32ZM34 32V36H38V32H34ZM24.3846 15.4H20.3846V21.5129L25.9861 19.0655L24.3846 15.4ZM13 14.6923C13 12.6531 14.6531 11 16.6923 11V3C10.2348 3 5 8.23482 5 14.6923H13ZM13 32V14.6923H5V32H13ZM21.5 28H9V36H21.5V28ZM24.3846 28H21.5V36H24.3846V28ZM34 28H24.3846V36H34V28ZM30 22.6923V32H38V22.6923H30ZM26.3077 19C28.3469 19 30 20.6531 30 22.6923H38C38 16.2348 32.7652 11 26.3077 11V19ZM25.9861 19.0655C26.0795 19.0247 26.1854 19 26.3077 19V11C25.0624 11 23.8676 11.2608 22.7831 11.7346L25.9861 19.0655ZM20.3846 14.6923V15.4H28.3846V14.6923H20.3846ZM16.6923 11C18.7315 11 20.3846 12.6531 20.3846 14.6923H28.3846C28.3846 8.23482 23.1498 3 16.6923 3V11Z" fill="#4277FF" mask="url(#path-2-inside-1_33_302)"/>
</svg>
