<svg width="32" height="32" viewBox="0 0 32 32" fill="none" xmlns="http://www.w3.org/2000/svg">
<path fill-rule="evenodd" clip-rule="evenodd" d="M1.38586 31.9533C1.82298 32.1868 2.31225 32.3035 2.85368 32.3035C3.39511 32.3035 3.8819 32.1868 4.31405 31.9533C4.7462 31.7199 5.08645 31.3995 5.33482 30.9922C5.58318 30.5799 5.70736 30.1179 5.70736 29.6063C5.70736 29.0947 5.58318 28.6352 5.33482 28.2279C5.08645 27.8156 4.7462 27.4927 4.31405 27.2593C3.8819 27.0258 3.39511 26.9091 2.85368 26.9091C2.31225 26.9091 1.82298 27.0258 1.38586 27.2593C0.95371 27.4927 0.613454 27.8156 0.365092 28.2279C0.121697 28.6352 0 29.0947 0 29.6063C0 30.1179 0.121697 30.5799 0.365092 30.9922C0.613454 31.3995 0.95371 31.7199 1.38586 31.9533ZM3.68818 31.0667C3.43981 31.2058 3.16165 31.2753 2.85368 31.2753C2.54571 31.2753 2.26754 31.2058 2.01918 31.0667C1.77082 30.9226 1.57462 30.7239 1.43056 30.4706C1.29148 30.2173 1.22194 29.9292 1.22194 29.6063C1.22194 29.2834 1.29148 28.9953 1.43056 28.742C1.57462 28.4887 1.77082 28.2925 2.01918 28.1534C2.26754 28.0093 2.54571 27.9373 2.85368 27.9373C3.16165 27.9373 3.43981 28.0093 3.68818 28.1534C3.93654 28.2925 4.13026 28.4887 4.26934 28.742C4.41339 28.9953 4.48542 29.2834 4.48542 29.6063C4.48542 29.9292 4.41339 30.2173 4.26934 30.4706C4.13026 30.7239 3.93654 30.9226 3.68818 31.0667Z" fill="#F0F0F0"/>
<path d="M11.8721 32.2141V26.9985H10.68V30.1651L8.08706 26.9985H7.08865V32.2141H8.28078V29.0475L10.8811 32.2141H11.8721Z" fill="#F0F0F0"/>
<path d="M13.5802 26.9985H14.7873V31.2306H17.4025V32.2141H13.5802V26.9985Z" fill="#F0F0F0"/>
<path d="M19.7581 26.9985H18.5511V32.2141H19.7581V26.9985Z" fill="#F0F0F0"/>
<path d="M26.2535 26.9985V32.2141H25.2625L22.6622 29.0475V32.2141H21.47V26.9985H22.4685L25.0614 30.1651V26.9985H26.2535Z" fill="#F0F0F0"/>
<path d="M32 32.2141V31.2455H29.1612V30.0385H31.5828V29.0996H29.1612V27.9671H31.9031V26.9985H27.9616V32.2141H32Z" fill="#F0F0F0"/>
<path d="M12.3636 7.27273C12.3636 8.47771 11.3868 9.45455 10.1818 9.45455C8.97683 9.45455 8 8.47771 8 7.27273C8 6.06774 8.97683 5.09091 10.1818 5.09091C11.3868 5.09091 12.3636 6.06774 12.3636 7.27273Z" fill="#F0F0F0"/>
<path fill-rule="evenodd" clip-rule="evenodd" d="M4.36364 5.81818C4.36364 2.60489 6.96853 0 10.1818 0H15.2727V23.2727H10.1818C6.96853 23.2727 4.36364 20.6678 4.36364 17.4545V5.81818ZM10.1818 1.45455H13.8182V21.8182H10.1818C7.77185 21.8182 5.81818 19.8645 5.81818 17.4545V5.81818C5.81818 3.40821 7.77185 1.45455 10.1818 1.45455Z" fill="#F0F0F0"/>
<path fill-rule="evenodd" clip-rule="evenodd" d="M17.4545 0H21.8182C25.0315 0 27.6364 2.60489 27.6364 5.81818V17.4545C27.6364 20.6678 25.0315 23.2727 21.8182 23.2727H17.4545V0ZM24.7273 12.3636C24.7273 13.5686 23.7504 14.5455 22.5455 14.5455C21.3405 14.5455 20.3636 13.5686 20.3636 12.3636C20.3636 11.1587 21.3405 10.1818 22.5455 10.1818C23.7504 10.1818 24.7273 11.1587 24.7273 12.3636Z" fill="#F0F0F0"/>
</svg>
